<?xml version="1.0" encoding="utf-8"?>
<?xml-stylesheet type="text/xsl" href="rss1.xsl"?>
<rss version="2.0" xmlns:atom="http://www.w3.org/2005/Atom" xmlns:content="http://purl.org/rss/1.0/modules/content/" xmlns:dc="http://purl.org/dc/elements/1.1/" xmlns:media="http://search.yahoo.com/mrss/">
<channel>
 <title>Getty</title>
 <link>http://www.gettyimg.com/</link>
 <atom:link href="http://www.gettyimg.com/" rel="self" type="application/rss+xml" />

 
                <item>
                <title><![CDATA[【HD Live Performances】WEB-DL - Billie Eilish - What I Was Made For - Saturday Night Live S49E08 12.16.2023 1080p HULU WEB-DL DDP5.1 H.264-None]]></title>
                <link><![CDATA[https://sharemania.us/threads/billie-eilish-what-i-was-made-for-saturday-night-live-s49e08-12-16-2023-1080p-hulu-web-dl-ddp5-1-h-264-none.234152/]]></link>
                <description><![CDATA[<article>
<blockquote class="messageText SelectQuoteContainer ugc baseHtml">
<div style="text-align: center"><span style="font-size: 15px"><img src="https://i.imgur.com/sK8oBdV.jpg" class="bbCodeImage LbImage" alt="[​IMG]" data-url="https://i.imgur.com/sK8oBdV.jpg" style=""> </span><br>
​</div>
<div class="ToggleTriggerAnchor bbCodeSpoilerContainer">
<button type="button" class="button bbCodeSpoilerButton ToggleTrigger Tooltip JsOnly" data-target="> .SpoilerTarget"><span>Spoiler: <span class="SpoilerTitle">MediaInfo</span></span></button>
<div class="SpoilerTarget bbCodeSpoilerText"><span style="font-family: 'Times New Roman'"><span style="font-size: 15px">General<br>
Unique ID : 326709604916195887904713904323964827492 (0xF5C9FB2ADB8093912B7687E17A09F764)<br>
Complete name : C:\Users\user\Desktop\Billie Eilish - What I Was Made For - Saturday Night Live S49E08 12.16.2023 1080p HULU WEB-DL DDP5.1 H.264-None.mkv<br>
Format : Matroska<br>
Format version : Version 4<br>
File size : 258 MiB<br>
Duration : 4 min 15 s<br>
Overall bit rate mode : Constant<br>
Overall bit rate : 8 476 kb/s<br>
Writing application : VideoReDo (Lavf57.71.100)<br>
Writing library : VideoReDo (Lavf57.71.100)<br>
ErrorDetectionType : Per level 1<br>
<br>
Video<br>
ID : 1<br>
Format : AVC<br>
Format/Info : Advanced Video Codec<br>
Format profile : High@L4.2<br>
Format settings : CABAC / 4 Ref Frames<br>
Format settings, CABAC : Yes<br>
Format settings, Reference frames : 4 frames<br>
Codec ID : V_MPEG4/ISO/AVC<br>
Duration : 4 min 15 s<br>
Bit rate mode : Constant<br>
Bit rate : 8 200 kb/s<br>
Width : 1 920 pixels<br>
Height : 1 080 pixels<br>
Display aspect ratio : 16:9<br>
Frame rate mode : Constant<br>
Frame rate : 59.940 (60000/1001) FPS<br>
Color space : YUV<br>
Chroma subsampling : 4:2:0<br>
Bit depth : 8 bits<br>
Scan type : Progressive<br>
Bits/(Pixel*Frame) : 0.066<br>
Stream size : 245 MiB (95%)<br>
Writing library : x264 core 152 r2245<br>
Encoding settings : cabac=1 / ref=4 / deblock=1:0:0 / analyse=0x3:0x113 / me=hex / subme=4 / psy=1 / psy_rd=1.00:0.00 / mixed_ref=0 / me_range=16 / chroma_me=1 / trellis=1 / 8x8dct=1 / cqm=0 / deadzone=21,11 / fast_pskip=1 / chroma_qp_offset=0 / threads=18 / lookahead_threads=4 / sliced_threads=0 / nr=0 / decimate=1 / interlaced=tff / bluray_compat=0 / constrained_intra=0 / bframes=3 / b_pyramid=2 / b_adapt=1 / b_bias=0 / direct=1 / weightb=1 / open_gop=0 / weightp=0 / keyint=52 / keyint_min=5 / scenecut=0 / intra_refresh=0 / rc_lookahead=20 / rc=abr / mbtree=1 / bitrate=7077 / ratetol=1.0 / qcomp=0.60 / qpmin=0 / qpmax=69 / qpstep=4 / vbv_maxrate=8200 / vbv_bufsize=20500 / nal_hrd=none / filler=0 / ip_ratio=1.40 / aq=1:1.00<br>
Default : No<br>
Forced : No<br>
<br>
Audio<br>
ID : 2<br>
Format : E-AC-3<br>
Format/Info : Enhanced AC-3<br>
Commercial name : Dolby Digital Plus<br>
Codec ID : A_EAC3<br>
Duration : 4 min 15 s<br>
Bit rate mode : Constant<br>
Bit rate : 256 kb/s<br>
Channel(s) : 6 channels<br>
ChannelLayout_Original : L R C LFE Ls Rs<br>
Sampling rate : 48.0 kHz<br>
Frame rate : 31.250 FPS (1536 SPF)<br>
Compression mode : Lossy<br>
Stream size : 7.79 MiB (3%)<br>
Language : English<br>
Service kind : Complete Main<br>
Default : Yes<br>
Forced : No<br>
<br>
Menu<br>
00:00:00.000 : Chapter 0<br>
00:00:11.044 : Chapter 2<br>
<br>
<br>
</span></span></div>
</div><br>
<div style="text-align: center"><span style="font-family: 'Times New Roman'"><span style="font-size: 15px"><br>
<div class="bbCodeBlock bbCodeVfcHH HiddenContent">
<div class="attribution type">Hidden Content:</div>
<blockquote>You must either reply or click 'Like' to see the hidden information contained here.</blockquote>
</div>Ripper: None<br>
</span></span>​</div>
<div class="messageTextEndMarker">&nbsp;</div>
</blockquote>
</article>]]></description>
                <author><![CDATA[mariellisaa]]></author>
                </item>

                
                <item>
                <title><![CDATA[【HD Live Performances】WEB-DL - Billie Eilish - Have Yourself A Merry Little Christmas Saturday Night Live S49E08 12.16.2023 1080p HULU  WEB-DL DDP5.1 H.264-None]]></title>
                <link><![CDATA[https://sharemania.us/threads/billie-eilish-have-yourself-a-merry-little-christmas-saturday-night-live-s49e08-12-16-2023-1080p-hulu-web-dl-ddp5-1-h-264-none.234153/]]></link>
                <description><![CDATA[<article>
<blockquote class="messageText SelectQuoteContainer ugc baseHtml">
thanks
<div class="messageTextEndMarker">&nbsp;</div>
</blockquote>
</article>]]></description>
                <author><![CDATA[mariellisaa]]></author>
                </item>

                </channel></rss>